<?xml version="1.0" encoding="iso-8859-1"?>
<!-- Generator: Adobe Illustrator 19.0.0, SVG Export Plug-In . SVG Version: 6.00 Build 0)  -->
<svg version="1.1" id="Layer_1" xmlns="http://www.w3.org/2000/svg" xmlns:xlink="http://www.w3.org/1999/xlink" x="0px" y="0px"
	 viewBox="0 0 512 512" style="enable-background:new 0 0 512 512;" xml:space="preserve">
<g>
	<g>
		<g>
			<path d="M120.967,309.451c4.662,0,8.44-3.779,8.44-8.44c0-32.576,26.502-59.077,59.077-59.077h20.679
				c18.191,0,34.279-11.595,40.033-28.854l35.392-106.179h61.434h33.758c4.662,0,8.44-3.779,8.44-8.44V8.44
				c0-4.661-3.778-8.44-8.44-8.44H165.978c-2.238,0-4.384,0.889-5.968,2.472l-11.253,11.253c-1.582,1.582-2.471,3.729-2.471,5.967
				v15.994c-6.641,3.169-11.253,9.929-11.253,17.765s4.611,14.597,11.253,17.765v15.994c0,2.238,0.889,4.385,2.471,5.967
				l11.253,11.253c1.584,1.583,3.73,2.472,5.968,2.472h13.635c-2.015,22.599-10.473,56.643-10.57,57.03
				c-0.63,2.522-0.064,5.192,1.536,7.241c1.599,2.048,4.053,3.245,6.651,3.245h33.758c3.197,0,6.119-1.806,7.548-4.665
				c2.132-4.265,19.006-38.572,22.681-62.851h25.579l-33.614,100.841c-3.452,10.355-13.105,17.312-24.02,17.312h-20.679
				c-41.883,0-75.956,34.073-75.956,75.956C112.527,305.672,116.305,309.451,120.967,309.451z M205.701,157.538h-17.809
				c2.862-12.654,7.333-34.214,8.652-50.637h27.577C221.115,122.718,211.507,145.239,205.701,157.538z M169.473,90.022l-6.308-6.308
				V23.187l6.308-6.308h201.868v73.143H169.473z"/>
			<path d="M392.11,210.037l-26.829-80.485c-1.475-4.422-6.254-6.814-10.675-5.338c-4.422,1.474-6.811,6.254-5.337,10.675
				l26.829,80.486c4.311,12.932,6.496,26.4,6.496,40.032v214.395c0,13.961-11.359,25.319-25.319,25.319H154.725
				c-13.96,0-25.319-11.357-25.319-25.319V334.769c0-4.661-3.778-8.44-8.44-8.44s-8.44,3.779-8.44,8.44v135.033
				c0,23.268,18.929,42.198,42.198,42.198h202.549c23.268,0,42.198-18.929,42.198-42.198V255.407
				C399.473,239.958,396.996,224.693,392.11,210.037z"/>
			<path d="M188.484,270.066c-17.063,0-30.945,13.881-30.945,30.945v135.033c0,17.064,13.883,30.945,30.945,30.945h135.033
				c17.063,0,30.945-13.881,30.945-30.945V301.011c0-17.064-13.883-30.945-30.945-30.945H188.484z M337.582,301.011v135.033
				c0,7.756-6.309,14.066-14.066,14.066H188.484c-7.757,0-14.066-6.309-14.066-14.066V301.011c0-7.757,6.309-14.066,14.066-14.066
				h135.033C331.273,286.945,337.582,293.254,337.582,301.011z"/>
		</g>
	</g>
</g>
<g>
</g>
<g>
</g>
<g>
</g>
<g>
</g>
<g>
</g>
<g>
</g>
<g>
</g>
<g>
</g>
<g>
</g>
<g>
</g>
<g>
</g>
<g>
</g>
<g>
</g>
<g>
</g>
<g>
</g>
</svg>
